<?xml version="1.0" standalone="no"?>
<!DOCTYPE svg PUBLIC "-//W3C//DTD SVG 20010904//EN"
 "http://www.w3.org/TR/2001/REC-SVG-20010904/DTD/svg10.dtd">
<svg version="1.0" xmlns="http://www.w3.org/2000/svg"
 width="154.000000pt" height="133.000000pt" viewBox="0 0 154.000000 133.000000"
 preserveAspectRatio="xMidYMid meet">
<metadata>
Created by potrace 1.16, written by Peter Selinger 2001-2019
</metadata>
<g transform="translate(0.000000,133.000000) scale(0.100000,-0.100000)"
fill="#000000" stroke="none">
<path d="M638 1038 l-3 -203 -202 -3 c-127 -1 -203 -6 -203 -12 0 -7 76 -9
213 -8 l212 3 3 213 c1 136 -1 212 -8 212 -6 0 -11 -76 -12 -202z"/>
<path d="M962 1028 l3 -213 213 -3 c136 -1 212 1 212 8 0 6 -76 11 -202 12
l-203 3 -3 203 c-1 126 -6 202 -12 202 -7 0 -9 -76 -8 -212z"/>
<path d="M1018 1228 c-4 -36 -3 -44 7 -50 6 -5 5 -8 -3 -8 -10 0 -12 -34 -11
-150 l1 -150 188 0 189 0 0 163 c0 222 15 207 -199 207 -129 0 -170 -3 -172
-12z"/>
<path d="M960 294 c0 -141 3 -213 10 -209 6 4 10 83 10 206 l0 199 33 1 c17 0
110 0 205 0 107 -1 172 3 172 9 0 6 -80 10 -215 10 l-215 0 0 -216z"/>
</g>
</svg>
